<?xml version="1.0" encoding="iso-8859-1"?>
<!-- Generator: Adobe Illustrator 20.1.0, SVG Export Plug-In . SVG Version: 6.00 Build 0)  -->
<svg version="1.1" id="Snow-2" xmlns="http://www.w3.org/2000/svg" xmlns:xlink="http://www.w3.org/1999/xlink" x="0px" y="0px"
	 viewBox="0 0 31.414 31.414" style="enable-background:new 0 0 31.414 31.414;" xml:space="preserve">
<g>
	<rect x="14.707" y="14.707" width="2" height="2"/>
	<path d="M27.293,16.707L30,19.414L31.414,18l-2.293-2.293l2.293-2.293L30,12l-2.707,2.707h-6.687
		c-0.13-0.637-0.384-1.229-0.732-1.753l7.247-7.247h3.586v-2h-3v-3h-2v3.586L18.46,11.54c-0.524-0.348-1.116-0.602-1.753-0.732
		V4.121l2.707-2.707L18,0l-2.293,2.293L13.414,0L12,1.414l2.707,2.707v6.687c-0.637,0.13-1.229,0.384-1.753,0.732L5.707,4.293V0.707
		h-2v3h-3v2h3.586l7.247,7.247c-0.348,0.524-0.602,1.116-0.732,1.753H4.121L1.414,12L0,13.414l2.293,2.293L0,18l1.414,1.414
		l2.707-2.707h6.687c0.13,0.637,0.384,1.229,0.732,1.753l-7.247,7.247H0.707v2h3v3h2v-3.586l7.247-7.247
		c0.524,0.348,1.116,0.602,1.753,0.732v6.687L12,30l1.414,1.414l2.293-2.293L18,31.414L19.414,30l-2.707-2.707v-6.687
		c0.637-0.13,1.229-0.384,1.753-0.732l7.247,7.247v3.586h2v-3h3v-2h-3.586l-7.247-7.247c0.348-0.524,0.602-1.116,0.732-1.753H27.293
		z M15.707,18.707c-1.654,0-3-1.346-3-3s1.346-3,3-3s3,1.346,3,3S17.361,18.707,15.707,18.707z"/>
</g>
</svg>
